<svg width="61" height="61" viewBox="0 0 61 61" fill="none" xmlns="http://www.w3.org/2000/svg">
<g clip-path="url(#clip0_223_282)">
<path d="M30.5001 60.9349C47.3088 60.9349 60.9349 47.3087 60.9349 30.5C60.9349 13.6913 47.3088 0.0651245 30.5001 0.0651245C13.6913 0.0651245 0.0651855 13.6913 0.0651855 30.5C0.0651855 47.3087 13.6913 60.9349 30.5001 60.9349Z" fill="url(#paint0_linear_223_282)"/>
<path fill-rule="evenodd" clip-rule="evenodd" d="M13.8418 30.1787C22.7141 26.3131 28.6305 23.7647 31.5907 22.5335C40.0428 19.018 41.7991 18.4073 42.9438 18.3871C43.1955 18.3827 43.7585 18.4451 44.1231 18.741C44.431 18.9908 44.5157 19.3283 44.5563 19.5652C44.5968 19.8021 44.6473 20.3417 44.6072 20.7633C44.1491 25.5758 42.1673 37.2543 41.159 42.6444C40.7324 44.9251 39.8924 45.6898 39.0791 45.7647C37.3117 45.9273 35.9696 44.5967 34.2578 43.4745C31.5791 41.7186 30.0658 40.6256 27.4657 38.9122C24.4608 36.932 26.4088 35.8437 28.1213 34.065C28.5694 33.5995 36.3567 26.5164 36.5074 25.8739C36.5262 25.7935 36.5437 25.494 36.3658 25.3358C36.1878 25.1776 35.9252 25.2317 35.7356 25.2747C35.467 25.3357 31.1878 28.1641 22.898 33.7599C21.6834 34.594 20.5832 35.0004 19.5975 34.9791C18.5108 34.9556 16.4205 34.3646 14.8665 33.8595C12.9605 33.2399 11.4457 32.9124 11.5776 31.8602C11.6463 31.3121 12.401 30.7516 13.8418 30.1787Z" fill="white"/>
</g>
<defs>
<linearGradient id="paint0_linear_223_282" x1="30.5001" y1="0.0651245" x2="30.5001" y2="60.4834" gradientUnits="userSpaceOnUse">
<stop stop-color="#2AABEE"/>
<stop offset="1" stop-color="#229ED9"/>
</linearGradient>
<clipPath id="clip0_223_282">
<rect width="60.8698" height="60.8698" fill="white" transform="translate(0.0651855 0.0651245)"/>
</clipPath>
</defs>
</svg>
