<svg width="61" height="61" viewBox="0 0 61 61" fill="none" xmlns="http://www.w3.org/2000/svg">
<g clip-path="url(#clip0_223_277)">
<path d="M0.5 29.3C0.5 15.7235 0.5 8.93533 4.71766 4.71766C8.93533 0.5 15.7235 0.5 29.3 0.5H31.7C45.2765 0.5 52.0646 0.5 56.2824 4.71766C60.5 8.93533 60.5 15.7235 60.5 29.3V31.7C60.5 45.2765 60.5 52.0646 56.2824 56.2824C52.0646 60.5 45.2765 60.5 31.7 60.5H29.3C15.7235 60.5 8.93533 60.5 4.71766 56.2824C0.5 52.0646 0.5 45.2765 0.5 31.7V29.3Z" fill="#0077FF"/>
<path d="M32.4251 43.725C18.7501 43.725 10.9502 34.35 10.6252 18.75H17.4752C17.7002 30.2 22.7501 35.05 26.7501 36.05V18.75H33.2004V28.625C37.1504 28.2 41.2999 23.7 42.6999 18.75H49.15C48.075 24.85 43.575 29.35 40.375 31.2C43.575 32.7 48.7002 36.625 50.6502 43.725H43.55C42.025 38.975 38.2254 35.3 33.2004 34.8V43.725H32.4251Z" fill="white"/>
</g>
<defs>
<clipPath id="clip0_223_277">
<rect width="60" height="60" fill="white" transform="translate(0.5 0.5)"/>
</clipPath>
</defs>
</svg>
