<svg width="1000" height="1000" viewBox="0 0 1000 1000" fill="none" xmlns="http://www.w3.org/2000/svg">
<g clip-path="url(#clip0_229_283)">
<rect width="1000" height="1000" fill="white"/>
<path d="M2260.25 4404.32C2694.8 3861.05 2895.74 3167.41 2818.86 2475.99C2741.98 1784.57 2393.59 1152.01 1850.32 717.464C1307.05 282.917 613.414 81.979 -78.0057 158.856C-769.426 235.732 -1401.99 584.125 -1836.54 1127.39L-1122.64 1698.43C-839.536 1344.5 -427.432 1117.52 23.0166 1067.44C473.465 1017.36 925.36 1148.26 1279.29 1431.36C1633.22 1714.46 1860.19 2126.57 1910.28 2577.02C1960.36 3027.46 1829.45 3479.36 1546.35 3833.29L2260.25 4404.32Z" fill="url(#paint0_linear_229_283)"/>
<path d="M121.041 295.977H285.583C298.233 295.977 309.709 298.778 320.009 304.38C330.31 309.802 338.352 316.94 344.135 325.795C350.099 334.469 353.08 343.415 353.08 352.631C353.08 361.306 350.099 370.251 344.135 379.468C338.352 388.504 330.31 396.094 320.009 402.238C309.709 408.202 298.233 411.183 285.583 411.183H169.021V485.729H121.041V295.977ZM276.095 371.064C283.143 371.064 289.197 369.98 294.257 367.812C299.498 365.462 302.118 360.402 302.118 352.631C302.118 346.126 299.408 341.788 293.986 339.62C288.745 337.271 282.782 336.096 276.095 336.096H169.021V371.064H276.095ZM474.071 490.066C452.927 490.066 433.319 486.633 415.248 479.765C397.176 472.898 382.899 463.953 372.418 452.929C361.936 441.905 356.695 430.339 356.695 418.231C356.695 405.943 361.936 394.287 372.418 383.263C382.899 372.058 397.176 363.023 415.248 356.155C433.319 349.288 452.927 345.855 474.071 345.855C487.444 345.855 499.732 347.662 510.937 351.276C522.141 354.71 531.99 359.499 540.484 365.643L543.195 350.463H588.464V486H543.195L540.755 470.278C532.261 476.422 522.322 481.301 510.937 484.916C499.732 488.349 487.444 490.066 474.071 490.066ZM407.657 417.96C407.657 430.43 413.983 440.188 426.633 447.236C439.283 454.284 455.095 457.808 474.071 457.808C493.046 457.808 508.859 454.284 521.509 447.236C534.159 440.188 540.484 430.43 540.484 417.96C540.484 410.19 537.412 403.322 531.267 397.359C525.304 391.214 517.262 386.516 507.142 383.263C497.022 379.829 485.998 378.112 474.071 378.112C462.143 378.112 451.12 379.829 441 383.263C430.879 386.516 422.747 391.214 416.603 397.359C410.639 403.322 407.657 410.19 407.657 417.96ZM598.276 453.742H626.738C631.979 438.02 634.6 421.575 634.6 404.407C634.6 387.058 631.708 369.077 625.925 350.463H811.611V453.742H837.905V540.215H789.925V486H645.985L646.256 540.215H598.276V453.742ZM763.902 453.742V382.721H682.309C683.032 390.13 683.393 397.81 683.393 405.762C683.393 415.34 682.67 423.924 681.224 431.514C679.779 439.104 677.52 446.513 674.448 453.742H763.902ZM848.462 382.992H1133.9V409.557H848.462V382.992ZM294.803 567.463H343.596V595.926C343.596 610.925 350.283 622.401 363.656 630.352C377.029 638.123 393.383 642.008 412.72 642.008C431.695 642.008 447.508 638.304 460.158 630.894C472.808 623.485 479.946 611.829 481.573 595.926V567.463H530.366V669.929C530.366 688.362 524.674 703.994 513.289 716.825C501.903 729.656 487.175 739.234 469.103 745.559C451.213 752.064 432.418 755.317 412.72 755.317C394.106 755.317 375.673 752.336 357.421 746.372C339.349 740.408 324.35 731.463 312.422 719.536C300.676 707.608 294.803 693.332 294.803 676.706H343.596C343.596 686.645 347.21 694.687 354.439 700.831C361.668 706.795 370.523 711.042 381.004 713.572C391.667 716.102 402.238 717.367 412.72 717.367C428.984 717.367 444.074 714.385 457.989 708.421C472.085 702.458 479.946 691.886 481.573 676.706V665.592C471.995 669.929 461.242 673.363 449.315 675.893C437.388 678.423 425.189 679.688 412.72 679.688C395.552 679.688 377.842 676.706 359.589 670.742C341.337 664.598 325.976 655.291 313.507 642.821C301.037 630.171 294.803 614.63 294.803 596.197V567.463ZM555.199 567.463H708.627V607.582H603.179V703H555.199V567.463ZM833.938 707.066C812.794 707.066 793.186 703.633 775.115 696.765C757.043 689.898 742.766 680.953 732.285 669.929C721.803 658.905 716.563 647.339 716.563 635.231C716.563 622.943 721.803 611.287 732.285 600.263C742.766 589.058 757.043 580.023 775.115 573.155C793.186 566.288 812.794 562.855 833.938 562.855C847.311 562.855 859.6 564.662 870.804 568.276C882.008 571.71 891.857 576.499 900.351 582.643L903.062 567.463H948.331V703H903.062L900.622 687.278C892.128 693.422 882.189 698.301 870.804 701.916C859.6 705.349 847.311 707.066 833.938 707.066ZM767.525 634.96C767.525 647.43 773.85 657.188 786.5 664.236C799.15 671.284 814.963 674.808 833.938 674.808C852.913 674.808 868.726 671.284 881.376 664.236C894.026 657.188 900.351 647.43 900.351 634.96C900.351 627.19 897.279 620.322 891.135 614.359C885.171 608.214 877.129 603.516 867.009 600.263C856.889 596.829 845.865 595.112 833.938 595.112C822.011 595.112 810.987 596.829 800.867 600.263C790.747 603.516 782.614 608.214 776.47 614.359C770.506 620.322 767.525 627.19 767.525 634.96Z" fill="white"/>
</g>
<defs>
<linearGradient id="paint0_linear_229_283" x1="-712" y1="1087.5" x2="630.54" y2="1772.35" gradientUnits="userSpaceOnUse">
<stop stop-color="#E91B40"/>
<stop offset="0.115059" stop-color="#FB5F1F"/>
<stop offset="0.265059" stop-color="#FEB201"/>
<stop offset="0.430059" stop-color="#00C799"/>
<stop offset="0.565059" stop-color="#0697FA"/>
<stop offset="0.730059" stop-color="#4941FE"/>
<stop offset="0.905856" stop-color="#CC28DB"/>
</linearGradient>
<clipPath id="clip0_229_283">
<rect width="1000" height="1000" fill="white"/>
</clipPath>
</defs>
</svg>
